<svg width="137" height="150" viewBox="0 0 137 150" fill="none" xmlns="http://www.w3.org/2000/svg">
<path d="M43.3013 118.603L118.301 75.3013L43.3013 32L43.3013 118.603Z" stroke="#E0F6FF" stroke-width="4" stroke-linecap="round"/>
<path d="M93.3013 32L93.3013 118.603L18.3013 75.3013L93.3013 32Z" stroke="#E0F6FF" stroke-width="4" stroke-linecap="round"/>
<line x1="68" y1="148" x2="68" y2="2" stroke="#E0F6FF" stroke-width="4" stroke-linecap="round"/>
<line x1="6.73204" y1="39.2679" x2="133.172" y2="112.268" stroke="#E0F6FF" stroke-width="4" stroke-linecap="round"/>
<line x1="132.172" y1="37.7321" x2="5.73205" y2="110.732" stroke="#E0F6FF" stroke-width="4" stroke-linecap="round"/>
<path d="M69.5 24C69.5 23.1716 68.8284 22.5 68 22.5C67.1716 22.5 66.5 23.1716 66.5 24L69.5 24ZM66.9393 26.0607C67.5251 26.6464 68.4749 26.6464 69.0607 26.0607L78.6066 16.5147C79.1924 15.9289 79.1924 14.9792 78.6066 14.3934C78.0208 13.8076 77.0711 13.8076 76.4853 14.3934L68 22.8787L59.5147 14.3934C58.9289 13.8076 57.9792 13.8076 57.3934 14.3934C56.8076 14.9792 56.8076 15.9289 57.3934 16.5147L66.9393 26.0607ZM66.5 24L66.5 25L69.5 25L69.5 24L66.5 24Z" fill="#E0F6FF"/>
<path d="M114.616 49.299C115.333 48.8848 115.579 47.9674 115.165 47.25C114.751 46.5326 113.833 46.2867 113.116 46.701L114.616 49.299ZM111.551 48.1118C111.337 48.912 111.812 49.7345 112.612 49.9489L125.652 53.4429C126.452 53.6574 127.274 53.1825 127.489 52.3823C127.703 51.5821 127.228 50.7596 126.428 50.5452L114.837 47.4393L117.943 35.8482C118.157 35.048 117.682 34.2255 116.882 34.0111C116.082 33.7967 115.26 34.2716 115.045 35.0718L111.551 48.1118ZM113.116 46.701L112.25 47.201L113.75 49.799L114.616 49.299L113.116 46.701Z" fill="#E0F6FF"/>
<path d="M24.25 98.201C23.5326 98.6152 23.2867 99.5326 23.701 100.25C24.1152 100.967 25.0326 101.213 25.75 100.799L24.25 98.201ZM27.3149 99.3882C27.5293 98.588 27.0544 97.7655 26.2543 97.5511L13.2143 94.0571C12.4141 93.8426 11.5915 94.3175 11.3771 95.1177C11.1627 95.9179 11.6376 96.7404 12.4378 96.9548L24.0289 100.061L20.9231 111.652C20.7087 112.452 21.1835 113.274 21.9837 113.489C22.7839 113.703 23.6064 113.228 23.8209 112.428L27.3149 99.3882ZM25.75 100.799L26.616 100.299L25.116 97.701L24.25 98.201L25.75 100.799Z" fill="#E0F6FF"/>
<path d="M114.116 102.799C114.833 103.213 115.751 102.967 116.165 102.25C116.579 101.533 116.333 100.615 115.616 100.201L114.116 102.799ZM113.612 99.5511C112.812 99.7655 112.337 100.588 112.551 101.388L116.045 114.428C116.26 115.228 117.082 115.703 117.882 115.489C118.682 115.274 119.157 114.452 118.943 113.652L115.837 102.061L127.428 98.9548C128.228 98.7404 128.703 97.9179 128.489 97.1177C128.274 96.3175 127.452 95.8426 126.652 96.0571L113.612 99.5511ZM115.616 100.201L114.75 99.701L113.25 102.299L114.116 102.799L115.616 100.201Z" fill="#E0F6FF"/>
<path d="M23.75 47.701C23.0326 47.2867 22.1152 47.5326 21.701 48.25C21.2867 48.9674 21.5326 49.8848 22.25 50.299L23.75 47.701ZM24.2543 50.9489C25.0544 50.7345 25.5293 49.912 25.3149 49.1118L21.8209 36.0718C21.6064 35.2716 20.7839 34.7967 19.9837 35.0111C19.1835 35.2255 18.7087 36.048 18.9231 36.8482L22.0289 48.4393L10.4378 51.5452C9.6376 51.7596 9.16272 52.5821 9.37713 53.3823C9.59155 54.1825 10.4141 54.6574 11.2143 54.4429L24.2543 50.9489ZM22.25 50.299L23.116 50.799L24.616 48.201L23.75 47.701L22.25 50.299Z" fill="#E0F6FF"/>
<path d="M66.5 126C66.5 126.828 67.1716 127.5 68 127.5C68.8284 127.5 69.5 126.828 69.5 126H66.5ZM69.0607 123.939C68.4749 123.354 67.5251 123.354 66.9393 123.939L57.3934 133.485C56.8076 134.071 56.8076 135.021 57.3934 135.607C57.9792 136.192 58.9289 136.192 59.5147 135.607L68 127.121L76.4853 135.607C77.0711 136.192 78.0208 136.192 78.6066 135.607C79.1924 135.021 79.1924 134.071 78.6066 133.485L69.0607 123.939ZM69.5 126V125H66.5V126H69.5Z" fill="#E0F6FF"/>
</svg>
